<?xml version="1.0" encoding="UTF-8"?>
<svg width="207px" height="280px" viewBox="0 0 207 280" version="1.1" xmlns="http://www.w3.org/2000/svg" xmlns:xlink="http://www.w3.org/1999/xlink">
    <title>Icons/bulb</title>
    <g id="Icons/bulb" stroke="none" stroke-width="1" fill="none" fill-rule="evenodd" stroke-linecap="round" stroke-linejoin="round">
        <g id="bulb" fill-rule="nonzero" stroke="#0D052C" stroke-width="1.5">
            <path d="M174.23,28.83 C194.836322,48.2474289 206.503513,75.3164713 206.470072,103.63 C206.470072,128.63 194.81,149.33 179.17,173.84 C166.45,193.76 156.89,212.36 152.17,233.23 C150.825481,239.395749 145.380577,243.801549 139.07,243.83 L68.07,243.83 C61.7680053,243.795034 56.3352905,239.389006 55,233.23 C50.31,212.36 40.74,193.76 28,173.84 C12.4,149.33 0.75,128.59 0.75,103.63 C0.747189846,65.5201624 21.8134354,30.531494 55.4959277,12.7031614 C89.1784199,-5.12517117 129.957267,-2.87145834 161.47,18.56" id="bulb-2" fill="#FFE483"></path>
            <g id="wire" transform="translate(67.000000, 130.000000)">
                <path d="M47.2,74.88 C45.92,97 44.96,113.88 44.96,113.88" id="Wire-2"></path>
                <path d="M28.25,113.83 C28.25,113.83 26.04,74.83 23.82,37.58 C21.6,0.33 9.82,-3.9 2.82,4.48 C-0.69,8.67 0.23,12.02 2.03,14.32 C3.81192002,16.5957281 6.54974668,17.914762 9.44,17.89 L63.86,17.89 C66.7495686,17.9117069 69.4861174,16.5932886 71.27,14.32 C73.07,12.02 73.99,8.67 70.48,4.48 C63.48,-3.9 51.65,0.29 49.48,37.58 C48.89,47.5 48.3,57.58 47.76,66.94" id="Wire-3"></path>
            </g>
            <g id="line" transform="translate(129.000000, 34.000000)">
                <path d="M35.74,27.41 C38.2560848,31.347314 40.3318767,35.5491998 41.93,39.94" id="Path"></path>
                <path d="M0.54,0.43 C13.221365,4.40689907 24.3700889,12.1931985 32.47,22.73" id="Path"></path>
            </g>
            <g id="low_part_bulb" transform="translate(64.000000, 243.000000)">
                <path d="M0.799996269,0.83 L78.4200037,0.83 L78.4200037,23.05 C78.4226535,26.6109376 77.0099361,30.0269367 74.4929103,32.5458381 C71.9758844,35.0647396 68.5609386,36.48 65,36.48 L14.22,36.48 C10.6590614,36.48 7.24411557,35.0647396 4.72708971,32.5458381 C2.21006386,30.0269367 0.797346544,26.6109376 0.799996269,23.05 L0.799996269,0.83 Z" id="low_part" fill="#FFFFFF"></path>
                <g id="lines" transform="translate(0.000000, 11.000000)">
                    <line x1="63.28" y1="1.3" x2="78.42" y2="1.3" id="Path"></line>
                    <line x1="0.8" y1="1.3" x2="56.1" y2="1.3" id="Path"></line>
                    <line x1="0.8" y1="12.77" x2="78.42" y2="12.77" id="Path"></line>
                </g>
            </g>
            <g id="stroke_lines" transform="translate(84.000000, 74.000000)">
                <g id="lines-2" transform="translate(7.000000, 0.000000)">
                    <line x1="8.01" y1="0.94" x2="18.2" y2="43.74" id="Path"></line>
                    <line x1="18.5" y1="5.69" x2="25.51" y2="35.13" id="Path"></line>
                    <line x1="0.26" y1="7.68" x2="7.71" y2="38.98" id="Path"></line>
                </g>
                <g id="lines-3" transform="translate(0.000000, 8.000000)">
                    <line x1="38.12" y1="3.41" x2="0.53" y2="23.27" id="Path"></line>
                    <line x1="23.59" y1="0.79" x2="4.55" y2="10.85" id="Path"></line>
                    <line x1="37.76" y1="13.9" x2="16.4" y2="25.18" id="Path"></line>
                </g>
            </g>
            <path d="M59.44,53.73 C57.44,54.14 49.83,56.35 47.65,66.28 C47.6374107,66.3161757 47.6033037,66.3404196 47.565,66.3404196 C47.5266963,66.3404196 47.4925893,66.3161757 47.48,66.28 C45.31,56.35 37.7,54.14 35.7,53.73 C35.6638243,53.7174107 35.6395804,53.6833037 35.6395804,53.645 C35.6395804,53.6066963 35.6638243,53.5725893 35.7,53.56 C37.7,53.14 45.31,50.94 47.48,41 C47.4925893,40.9638243 47.5266963,40.9395804 47.565,40.9395804 C47.6033037,40.9395804 47.6374107,40.9638243 47.65,41 C49.83,50.94 57.43,53.14 59.44,53.56 C59.4761757,53.5725893 59.5004196,53.6066963 59.5004196,53.645 C59.5004196,53.6833037 59.4761757,53.7174107 59.44,53.73 L59.44,53.73 Z" id="glare" fill="#FFFFFF"></path>
            <path d="M71.81,73.9 C68.1838161,74.7112563 65.413763,77.6435553 64.81,81.31 C64.81,81.3376142 64.7876142,81.36 64.76,81.36 C64.7323858,81.36 64.71,81.3376142 64.71,81.31 C64.0985349,77.6473773 61.3319301,74.7187286 57.71,73.9 C57.6823858,73.9 57.66,73.8776142 57.66,73.85 C57.66,73.8223858 57.6823858,73.8 57.71,73.8 C58.89,73.56 63.38,72.26 64.71,66.39 C64.71,66.3623858 64.7323858,66.34 64.76,66.34 C64.7876142,66.34 64.81,66.3623858 64.81,66.39 C66.09,72.26 70.58,73.56 71.81,73.8 C71.8376142,73.8 71.8599999,73.8223858 71.8599999,73.85 C71.8599999,73.8776142 71.8376142,73.9 71.81,73.9 Z" id="glare-2" fill="#FFFFFF"></path>
        </g>
    </g>
</svg>