<svg height="314" viewBox="0 0 357 314" width="357" xmlns="http://www.w3.org/2000/svg"><g fill="none" stroke="#0d052c" stroke-linecap="round" stroke-linejoin="round" stroke-width="1.5"><path d="m239.62 132.64c1.851288-.657899 3.122775-2.367693 3.22-4.33.12-2.13.17-4.27.17-6.43s0-4.31-.17-6.44c-.099884-1.961351-1.370392-3.669829-3.22-4.33l-31.62-11.25c-1.215908-.4231762-2.153805-1.4057346-2.52-2.64-1.78329-6.1458135-4.241602-12.0752746-7.33-17.68-.615909-1.1312156-.649408-2.4898039-.09-3.65l14.31-30.1c.842021-1.7791162.530294-3.8901788-.79-5.35-2.941205-3.2395772-6.05577-6.3174213-9.33-9.22-1.459413-1.2922899-3.549764-1.5875372-5.31-.75l-30 14.27c-1.162941.5628434-2.526129.5293224-3.66-.09-5.605395-3.0895633-11.534612-5.5511274-17.68-7.34-1.232016-.3641651-2.214139-1.2979264-2.64-2.51l-10.96-30.69c-.664243-1.85664761-2.38059-3.13108435-4.35-3.23-1.91-.09-3.83-.13-5.77-.13-2.666667 0-5.293333.08333333-7.88.25-1.93434.12972899-3.607501 1.39441908-4.26 3.22l-10.87 30.58c-.4258605 1.2120736-1.407984 2.1458349-2.64 2.51-6.1478265 1.7910188-12.0801264 4.2524706-17.69 7.34-1.1312156.6159089-2.4898039.6494083-3.65.09l-28.72-13.66c-1.7744946-.840186-3.8799639-.5326455-5.34.78-3.5294982 3.1595403-6.8686831 6.5254386-10 10.08-1.2797021 1.4618491-1.5703532 3.5435394-.74 5.3l13.66 28.64c.5594083 1.1601961.5259089 2.5187844-.09 3.65-3.0875294 5.6098736-5.5489812 11.5421735-7.34 17.69-.3661954 1.2342654-1.3040921 2.2168238-2.52 2.64l-29.61 10.54c-1.82023049.659125-3.07415447 2.337575-3.19 4.27-.14 2.386667-.21 4.79-.21 7.21s.07 4.823333.21 7.21c.12104614 1.945274 1.39251832 3.630073 3.23 4.28l29.57 10.53c1.2159079.423176 2.1538046 1.405735 2.52 2.64 1.7910188 6.147827 4.2524706 12.080126 7.34 17.69.6159089 1.131216.6494083 2.489804.09 3.65l-13.62 28.64c-.8303532 1.756461-.5397021 3.838151.74 5.3 3.1364556 3.549753 6.4753507 6.915359 10 10.08 1.4643768 1.31186 3.5720192 1.619142 5.35.78l28.67-13.68c1.1601961-.559408 2.5187844-.525909 3.65.09 5.6105187 3.081066 11.5428392 5.535819 17.69 7.32 1.2502415.380261 2.2359056 1.347257 2.64 2.59l10.87 30.57c.651495 1.827895 2.324099 3.09609 4.26 3.23 2.61.16 5.24.25 7.88.25 1.94 0 3.86 0 5.77-.14 1.967829-.094656 3.684786-1.365599 4.35-3.22l10.91-30.69c.423176-1.215908 1.405735-2.153805 2.64-2.52 6.147161-1.784181 12.079481-4.238934 17.69-7.32 1.131216-.615909 2.489804-.649408 3.65-.09l30 14.26c1.758284.840224 3.848436.548941 5.31-.74 3.275134-2.908514 6.392891-5.989552 9.34-9.23 1.320294-1.459821 1.632021-3.570884.79-5.35l-14.33-30.13c-.559408-1.160196-.525909-2.518784.09-3.65 3.088485-5.608184 5.546783-11.540967 7.33-17.69.378267-1.247934 1.34109-2.233148 2.58-2.64zm-116.43 29.42c-16.489162.537082-31.6325162-9.054962-38.1932872-24.19224-6.5607711-15.137278-3.2068793-32.746364 8.4589022-44.412145 11.665781-11.6657815 29.274867-15.0196733 44.412145-8.4589022 15.137278 6.560771 24.729322 21.7041252 24.19224 38.1932872-.689709 21.175043-17.694957 38.180291-38.87 38.87z" fill="#ffba68"/><path d="m32.8 115.49c.4162793-5.82982 1.4213989-11.602557 3-17.23"/><path d="m185.19 183.07c-14.993248 15.133551-34.875863 24.447546-56.1 26.28"/><path d="m58.64 59.17c16.8039098-16.0567926 39.1680478-24.9902642 62.41-24.93"/><g transform="translate(68 58)"><path d="m107.22 23.67c1.748516 2.3385501 3.345131 4.7869163 4.78 7.33"/><path d="m76.17.9c10.4607445 3.7071432 19.8330171 9.9621986 27.27 18.2"/><path d="m43.65 129.89c-17.1820612-2.66309-32.6479754-11.922548-43.11-25.81"/></g><path d="m62.99 80.62 12.3 15.88"/><path d="m70.58 81.63 7.13 9.2"/><path d="m58.93 84.16 10.6 13.69"/><path d="m75.3 80.12-13.28 17.15"/><path d="m67.99 80.78-7.79 10.05"/><path d="m77.49 86.09-7.42 9.57"/><g transform="translate(204 161)"><path d="m131 62.32c-.762361-.2679961-1.349955-.8853416-1.58-1.66-1.126779-3.8604152-2.672648-7.5859255-4.61-11.11-.385945-.7103501-.404572-1.5634814-.05-2.29l9-18.9c.534724-1.1204039.336993-2.4531149-.5-3.37-1.847573-2.0341847-3.80376-3.9670048-5.86-5.79-.918704-.8114996-2.233022-.9964485-3.34-.47l-18.85 9c-.726519.3545723-1.57965.3359449-2.29-.05-3.5306087-1.9635252-7.2663826-3.5329527-11.14-4.68-.776359-.2271001-1.3948613-.8157951-1.66-1.58l-6.86-19.27c-.4112383-1.16529908-1.494939-1.95921899-2.73-2-1.2-.06-2.4-.08-3.62-.08-1.66 0-3.3266667.05-5 .15-1.2098951.07895401-2.2599867.8626044-2.68 2l-6.82 19.2c-.2578234.7508713-.8544126 1.3363439-1.61 1.58-3.8604152 1.1267787-7.5859255 2.6726475-11.11 4.61-.7103501.3859449-1.5634814.4045723-2.29.05l-18-8.57c-1.1157817-.5328467-2.4428666-.3393135-3.36.49-2.2048215 1.9864919-4.2917099 4.1000924-6.25 6.33-.8072514.9167054-.9920019 2.2256823-.47 3.33l8.55 18c.3514789.728126.3291256 1.5812784-.06 2.29-1.9341192 3.5243961-3.4766389 7.2499165-4.6 11.11-.230045.7746584-.8176389 1.3920039-1.58 1.66l-18.63 6.64c-1.14890245.4044906-1.93920157 1.4634915-2 2.68-.09 1.5-.14 3-.14 4.53s.05 3 .14 4.53c.05683193 1.2202251.84784685 2.2841401 2 2.69l18.59 6.63c.760547.270795 1.34707.8870153 1.58 1.66 1.1233611 3.8600835 2.6658808 7.5856039 4.6 11.11.3892439.712263.4115782 1.568411.06 2.3l-8.55 18c-.5193321 1.103199-.3389638 2.408908.46 3.33 1.9625897 2.21975 4.0527954 4.323312 6.26 6.3.9175482.819957 2.2360467 1.012812 3.35.49l18-8.58c.7310543-.349762 1.5848362-.331201 2.3.05 3.5220722 1.941516 7.2480512 3.487579 11.11 4.61.7729847.23293 1.389205.819453 1.66 1.58l6.82 19.21c.4178603 1.139003 1.469177 1.923567 2.68 2 1.64.11 3.29.16 5 .16 1.22 0 2.42 0 3.62-.09 1.235061-.040781 2.3187617-.834701 2.73-2l6.86-19.28c.2679961-.762361.8853416-1.349955 1.66-1.58 3.8619488-1.122421 7.5879278-2.668484 11.11-4.61.711645-.381043 1.562402-.399619 2.29-.05l18.86 9c1.101726.538698 2.420406.352578 3.33-.47 2.059512-1.822878 4.019034-3.755695 5.87-5.79.826756-.918336 1.020052-2.243796.49-3.36l-9-18.91c-.354572-.726519-.335945-1.57965.05-2.29 1.937352-3.5240745 3.483221-7.2495848 4.61-11.11.228516-.7868027.825273-1.4133977 1.6-1.68l19.88-7.07c1.158697-.4085689 1.951156-1.4823508 2-2.71.07-1.34.11-2.69.11-4s0-2.7-.11-4c-.044822-1.2313566-.838009-2.3100914-2-2.72zm-28.84 13c.335175 10.3561162-5.6905185 19.865865-15.1979382 23.9853861-9.5074198 4.1195209-20.5665796 2.0125599-27.8932939-5.314154-7.3267143-7.3267143-9.4336752-18.3858741-5.314154-27.8932939 4.1195211-9.5074197 13.6292699-15.5331128 23.9853861-15.1979382 13.3041791.4360411 23.984855 11.1254682 24.41 24.43z" fill="#7774ff"/><path d="m21 80.16c.2572523 3.6662836.88035 7.2976702 1.86 10.84"/><path d="m116.68 37.72c-9.417914-9.5070703-21.9075038-15.3584644-35.24-16.51"/><path d="m37.19 115.54c10.5521393 10.08935 24.6006545 15.701588 39.2 15.66"/></g><g transform="translate(247 195)"><path d="m67.42 67.41c1.1008792-1.4651255 2.1030911-3.0018504 3-4.6"/><path d="m47.91 81.71c6.5579134-2.3307693 12.4315716-6.2591434 17.09-11.43"/><path d="m27.48.69c-10.7926437 1.66458991-20.50716204 7.48181721-27.07 16.21"/></g></g></svg>