<?xml version="1.0" encoding="UTF-8"?>
<svg width="193px" height="346px" viewBox="0 0 193 346" version="1.1" xmlns="http://www.w3.org/2000/svg" xmlns:xlink="http://www.w3.org/1999/xlink">
    <title>Icons/rocket</title>
    <g id="Icons/rocket" stroke="none" stroke-width="1" fill="none" fill-rule="evenodd" stroke-linecap="round" stroke-linejoin="round">
        <g id="rocket" stroke="#0D052C">
            <g id="smoke" transform="translate(60.000000, 229.000000)">
                <g id="smoke-2" fill-rule="nonzero" stroke-width="1.5">
                    <path d="M64.89,80.23 C58.38,73.73 53.42,64.52 53.42,64.52 C48.51,100.28 37.51,113.94 35.65,116.04 C35.5816601,116.11749 35.4833202,116.161882 35.38,116.161882 C35.2766798,116.161882 35.1783399,116.11749 35.11,116.04 C22.3,101.91 20.4,58.38 20.4,58.38 C17.6,65.86 12.26,74.61 10.4,77.63 C10.2590095,77.8467521 10.0113298,77.9697175 9.75343553,77.9509993 C9.49554127,77.9322812 9.26821371,77.7748395 9.16,77.54 C-8.51,38.72 5.77,7.87 9.59,0.8 C12.25,1.28 15.12,1.67 18.17,1.99 C16.51,8.74 12.95,26.75 18.17,41.1 C18.17,41.1 22.77,34.57 27.38,31.1 C27.38,31.1 30.25,51.83 36.11,61.81 C36.11,61.81 43.5,42.62 45.8,33.02 C47.1317901,37.0060053 49.0749798,40.7608146 51.56,44.15 C51.56,44.15 60.22,29.72 54.79,1.88 C57.94,1.55 60.9,1.11 63.62,0.59 C78.76,38.59 68.33,73.45 66.14,79.93 C66.0775411,80.1944456 65.8715266,80.4012046 65.6073081,80.464617 C65.3430896,80.5280295 65.0656762,80.4372931 64.89,80.23 Z" id="Path" fill="#62A3FF"></path>
                    <path d="M51.5,44.17 C49.0113131,40.7685476 47.0679901,36.9999854 45.74,33 C43.44,42.6 36.05,61.79 36.05,61.79 C30.19,51.79 27.32,31.08 27.32,31.08 C22.71,34.53 18.11,41.08 18.11,41.08 C12.91,26.73 16.47,8.72 18.11,1.97 C24.0645938,2.56533255 30.0457405,2.85571189 36.03,2.84 C42.2702148,2.84646377 48.5061395,2.51263483 54.71,1.84 C60.16,29.74 51.5,44.17 51.5,44.17 Z" id="Path" fill="#87D4FF"></path>
                </g>
                <g id="line" transform="translate(40.000000, 74.000000)" stroke-width="0.7">
                    <path d="M2.55,12.12 C3.58959328,8.34578618 4.3615111,4.50290522 4.86,0.62" id="Path"></path>
                    <path d="M0.12,18.67 C0.715526959,17.5120719 1.21713806,16.3082052 1.62,15.07" id="Path"></path>
                </g>
            </g>
            <g id="rocket-2">
                <path d="M141.59,206.88 L141.59,219.82 C141.59,224.14 134.52,227.55 123.59,229.61 C120.87,230.13 117.91,230.61 114.76,230.9 C108.55614,231.572635 102.320215,231.906464 96.08,231.900112 C90.0852224,231.906768 84.0940351,231.606374 78.13,231 C75.13,230.68 72.21,230.29 69.55,229.81 C58.01,227.76 50.55,224.28 50.55,219.81 L50.55,206.74 C65.6247629,210.024845 81.001737,211.724087 96.43,211.81 C111.612945,211.726287 126.746617,210.074184 141.59,206.88 L141.59,206.88 Z" id="Path" stroke-width="1.5" fill="#1D1E5F" fill-rule="nonzero"></path>
                <path d="M164,168.46 C163.48,177.62 162.75,185.46 162.15,191.26 C161.474418,197.5599 157.037125,202.816568 150.94,204.54 C148.32,205.29 145.21,206.09 141.64,206.87 C126.778393,210.076898 111.623504,211.729123 96.42,211.8 C80.991117,211.724832 65.613022,210.025465 50.54,206.73 C47.24,205.99 44.35,205.24 41.89,204.54 C35.7920974,202.820417 31.3561146,197.560609 30.69,191.26 C30.08,185.52 29.37,177.62 28.85,168.46 C27.63,147.15 27.57,119 32.61,95 L32.61,95 C33.22,92.12 33.89,89.32 34.61,86.58 C38.9741771,70.5515028 45.7445255,55.2777587 54.69,41.28 C68.3798366,43.1888288 82.1877978,44.1245087 96.01,44.08 C110.324552,44.1388462 124.623761,43.1360966 138.79,41.08 C147.456472,54.6537663 154.017515,69.4616303 158.25,85 C159.17,88.32 159.97,91.78 160.67,95.33 C165.36,119.21 165.19,147.24 164,168.46 Z" id="rocket_main_part" stroke-width="1.5" fill="#FFFFFF" fill-rule="nonzero"></path>
                <path d="M32.61,95 C27.61,119 27.61,147.13 28.82,168.440009 L6.62,168.440009 C5.00324516,168.442886 3.45713139,167.777686 2.34752821,166.601809 C1.23792503,165.425933 0.663433414,163.843871 0.76,162.23 C3.62,117.43 32.61,95 32.61,95 Z" id="wing" stroke-width="1.5" fill="#FF5986" fill-rule="nonzero"></path>
                <g id="upper_violet_part" transform="translate(54.000000, 0.000000)" fill-rule="nonzero" stroke-width="1.5">
                    <path d="M65.82,17.36 C72.9825002,24.5615825 79.3522355,32.5103417 84.82,41.07 C70.6537611,43.1260966 56.3545519,44.1288462 42.04,44.07 C28.2177978,44.1145087 14.4098366,43.1788288 0.72,41.27 C14.3,20.16 29.46,7.85 37.2,2.43 C40.3246232,0.240156781 44.4718681,0.188564262 47.65,2.3 C52.2232297,5.3643078 56.5679807,8.7565557 60.65,12.45" id="Path" fill="#9E59FF"></path>
                    <path d="M55.47,17.72 C59.1166331,20.6297563 62.5736719,23.7694824 65.82,27.12" id="Path"></path>
                </g>
                <g id="wing-2" transform="translate(160.000000, 95.000000)" fill-rule="nonzero" stroke-width="1.5">
                    <path d="M4,73.46 C5.23,52.24 5.4,24.21 0.71,0.32 L0.77,0.01 C0.77,0.01 29.83,22.49 32.63,67.42 C32.7123793,68.9830093 32.1484133,70.5111237 31.0703973,71.6458774 C29.9923812,72.7806311 28.4951772,73.4221694 26.93,73.42 L4,73.46 Z" id="Path" fill="#FF5986"></path>
                    <path d="M19.53,45.36 C19.94,46.54 20.32,47.77 20.68,49.03" id="Path"></path>
                    <path d="M12.74,31.43 C14.7904465,34.6016952 16.557286,37.9479821 18.02,41.43" id="Path"></path>
                </g>
                <g id="middle_wing" transform="translate(83.000000, 169.000000)">
                    <ellipse id="Oval" stroke-width="1.5" fill="#FF81AF" fill-rule="nonzero" cx="13.43" cy="37.73" rx="13.04" ry="36.92"></ellipse>
                    <path d="M15.19,7.16 C17.0647002,10.407739 18.3701838,13.9521606 19.05,17.64" id="Path" stroke-width="0.6"></path>
                </g>
                <g id="window" transform="translate(63.000000, 79.000000)" fill-rule="nonzero" stroke-width="1.5">
                    <circle id="circle_window" fill="#87D4FF" cx="33.64" cy="33.66" r="32.71"></circle>
                    <g id="line-2" transform="translate(23.000000, 24.000000)">
                        <line x1="0.85" y1="7.5" x2="7.09" y2="18.72" id="Path"></line>
                        <line x1="5.51" y1="0.14" x2="16.1" y2="19.18" id="Path"></line>
                        <line x1="15.75" y1="2.82" x2="19.25" y2="9.1" id="Path"></line>
                    </g>
                </g>
                <g id="lines" transform="translate(58.000000, 72.000000)" fill-rule="nonzero" stroke-width="1.5">
                    <path d="M66.64,11.78 C68.3845713,13.5431628 69.9613628,15.4647728 71.35,17.52" id="Path"></path>
                    <path d="M47.25,0.9 C52.6828027,2.16361347 57.7918536,4.54783725 62.25,7.9" id="Path"></path>
                    <path d="M15.56,73.4 C8.9445653,68.932456 3.80412867,62.601749 0.79,55.21" id="Path"></path>
                </g>
            </g>
        </g>
    </g>
</svg>